<svg width="273" height="221" viewBox="0 0 273 221" fill="none" xmlns="http://www.w3.org/2000/svg">
<path d="M273 26.2146C262.961 30.6446 252.176 33.6378 240.838 34.9907C252.536 28.02 261.289 17.0491 265.461 4.12485C254.47 10.6259 242.441 15.202 229.897 17.6541C221.461 8.68486 210.287 2.73991 198.111 0.742222C185.935 -1.25546 173.437 0.805887 162.557 6.60624C151.678 12.4066 143.026 21.6214 137.945 32.8201C132.863 44.0187 131.637 56.5746 134.456 68.5384C112.185 67.4249 90.3984 61.6607 70.5095 51.6198C50.6206 41.5788 33.0741 27.4857 19.0088 10.2549C14.1995 18.5161 11.4341 28.0944 11.4341 38.2952C11.4287 47.4783 13.6997 56.5207 18.0454 64.6201C22.3912 72.7196 28.6774 79.6257 36.3463 84.7256C27.4524 84.4438 18.7548 82.0507 10.9772 77.7455V78.4639C10.9763 91.3435 15.4503 103.827 23.6399 113.796C31.8296 123.764 43.2305 130.605 55.9081 133.156C47.6576 135.379 39.0075 135.707 30.6112 134.113C34.1881 145.196 41.1555 154.886 50.5382 161.83C59.9208 168.773 71.2488 172.62 82.9364 172.833C63.096 188.343 38.5933 196.756 13.3699 196.719C8.90179 196.72 4.4375 196.46 0 195.941C25.6032 212.334 55.4072 221.034 85.846 221C188.885 221 245.214 136.017 245.214 62.3126C245.214 59.918 245.154 57.4995 245.046 55.105C256.003 47.2146 265.46 37.4439 272.976 26.2506L273 26.2146V26.2146Z" fill="#3F8DA3"/>
</svg>
